<mxfile host="app.diagrams.net" modified="2022-08-05T11:10:24.241Z" agent="5.0 (Windows NT 10.0; Win64; x64) AppleWebKit/537.36 (KHTML, like Gecko) Chrome/103.0.0.0 Safari/537.36" etag="BeOKmRru78ZZ3IUHYL45" version="20.2.3" type="github">
  <diagram name="Page-1" id="e7e014a7-5840-1c2e-5031-d8a46d1fe8dd">
    <mxGraphModel dx="2652" dy="699" grid="1" gridSize="10" guides="1" tooltips="1" connect="1" arrows="1" fold="1" page="1" pageScale="1" pageWidth="1169" pageHeight="826" background="none" math="0" shadow="0">
      <root>
        <mxCell id="0" />
        <mxCell id="1" parent="0" />
        <mxCell id="FYYByV0Zpg79TR2N0qTg-268" style="edgeStyle=orthogonalEdgeStyle;rounded=0;orthogonalLoop=1;jettySize=auto;html=1;entryX=0.495;entryY=-0.064;entryDx=0;entryDy=0;entryPerimeter=0;strokeColor=#FF3333;" edge="1" parent="1" source="FYYByV0Zpg79TR2N0qTg-42" target="FYYByV0Zpg79TR2N0qTg-45">
          <mxGeometry relative="1" as="geometry" />
        </mxCell>
        <mxCell id="FYYByV0Zpg79TR2N0qTg-42" value="" style="ellipse;shape=startState;fillColor=#000000;strokeColor=#ff0000;" vertex="1" parent="1">
          <mxGeometry x="264.5" y="350" width="30" height="30" as="geometry" />
        </mxCell>
        <mxCell id="FYYByV0Zpg79TR2N0qTg-45" value="Asisit call intiated" style="" vertex="1" parent="1">
          <mxGeometry x="224.5" y="420" width="110" height="50" as="geometry" />
        </mxCell>
        <mxCell id="FYYByV0Zpg79TR2N0qTg-48" value="" style="endArrow=open;strokeColor=#FF0000;endFill=1;rounded=0" edge="1" parent="1" source="FYYByV0Zpg79TR2N0qTg-45">
          <mxGeometry relative="1" as="geometry">
            <mxPoint x="279.5" y="503" as="targetPoint" />
          </mxGeometry>
        </mxCell>
        <mxCell id="FYYByV0Zpg79TR2N0qTg-76" value="" style="shape=line;strokeWidth=6;strokeColor=#ff0000;rotation=90" vertex="1" parent="1">
          <mxGeometry x="254.5" y="523" width="50" height="15" as="geometry" />
        </mxCell>
        <mxCell id="FYYByV0Zpg79TR2N0qTg-106" value="" style="edgeStyle=orthogonalEdgeStyle;rounded=0;orthogonalLoop=1;jettySize=auto;html=1;strokeColor=#FF3333;" edge="1" parent="1" source="FYYByV0Zpg79TR2N0qTg-82" target="FYYByV0Zpg79TR2N0qTg-86">
          <mxGeometry relative="1" as="geometry" />
        </mxCell>
        <mxCell id="FYYByV0Zpg79TR2N0qTg-82" value="queue empty" style="rhombus;fillColor=#ffffc0;strokeColor=#ff0000;" vertex="1" parent="1">
          <mxGeometry x="144.5" y="570" width="80" height="40" as="geometry" />
        </mxCell>
        <mxCell id="FYYByV0Zpg79TR2N0qTg-86" value="Call Successfully initiated and&amp;nbsp;&lt;br&gt;assist&amp;nbsp; call dialed" style="rounded=0;whiteSpace=wrap;html=1;" vertex="1" parent="1">
          <mxGeometry x="-110" y="560" width="120" height="60" as="geometry" />
        </mxCell>
        <mxCell id="FYYByV0Zpg79TR2N0qTg-89" value="No" style="text;html=1;align=center;verticalAlign=middle;resizable=0;points=[];autosize=1;strokeColor=none;fillColor=none;" vertex="1" parent="1">
          <mxGeometry x="122" y="620" width="40" height="30" as="geometry" />
        </mxCell>
        <mxCell id="FYYByV0Zpg79TR2N0qTg-90" value="" style="endArrow=classic;html=1;rounded=0;strokeColor=#FF3333;entryX=0.9;entryY=0;entryDx=0;entryDy=0;entryPerimeter=0;" edge="1" parent="1">
          <mxGeometry width="50" height="50" relative="1" as="geometry">
            <mxPoint x="180" y="573" as="sourcePoint" />
            <mxPoint x="180" y="740" as="targetPoint" />
          </mxGeometry>
        </mxCell>
        <mxCell id="FYYByV0Zpg79TR2N0qTg-108" value="" style="endArrow=none;html=1;rounded=0;strokeColor=#FF3333;exitX=0.446;exitY=0.6;exitDx=0;exitDy=0;exitPerimeter=0;" edge="1" parent="1" source="FYYByV0Zpg79TR2N0qTg-76">
          <mxGeometry width="50" height="50" relative="1" as="geometry">
            <mxPoint x="420" y="610" as="sourcePoint" />
            <mxPoint x="180" y="528" as="targetPoint" />
          </mxGeometry>
        </mxCell>
        <mxCell id="FYYByV0Zpg79TR2N0qTg-110" value="" style="endArrow=classic;html=1;rounded=0;strokeColor=#FF3333;entryX=0.429;entryY=0.025;entryDx=0;entryDy=0;entryPerimeter=0;" edge="1" parent="1" target="FYYByV0Zpg79TR2N0qTg-82">
          <mxGeometry width="50" height="50" relative="1" as="geometry">
            <mxPoint x="180" y="530" as="sourcePoint" />
            <mxPoint x="470" y="560" as="targetPoint" />
          </mxGeometry>
        </mxCell>
        <mxCell id="FYYByV0Zpg79TR2N0qTg-111" value="Yes" style="text;html=1;align=center;verticalAlign=middle;resizable=0;points=[];autosize=1;strokeColor=none;fillColor=none;" vertex="1" parent="1">
          <mxGeometry x="130" y="543" width="40" height="30" as="geometry" />
        </mxCell>
        <mxCell id="FYYByV0Zpg79TR2N0qTg-112" value="" style="endArrow=classic;html=1;rounded=0;strokeColor=#FF3333;exitX=0;exitY=0.5;exitDx=0;exitDy=0;" edge="1" parent="1" source="FYYByV0Zpg79TR2N0qTg-86" target="FYYByV0Zpg79TR2N0qTg-113">
          <mxGeometry width="50" height="50" relative="1" as="geometry">
            <mxPoint x="-170" y="590" as="sourcePoint" />
            <mxPoint x="-200" y="590" as="targetPoint" />
          </mxGeometry>
        </mxCell>
        <mxCell id="FYYByV0Zpg79TR2N0qTg-113" value="Is more than&amp;nbsp;&lt;br&gt;one call center available" style="rhombus;whiteSpace=wrap;html=1;" vertex="1" parent="1">
          <mxGeometry x="-300" y="533" width="120" height="110" as="geometry" />
        </mxCell>
        <mxCell id="FYYByV0Zpg79TR2N0qTg-114" value="" style="endArrow=classic;html=1;rounded=0;strokeColor=#FF3333;exitX=0;exitY=0.5;exitDx=0;exitDy=0;entryX=1.001;entryY=0.628;entryDx=0;entryDy=0;entryPerimeter=0;" edge="1" parent="1" source="FYYByV0Zpg79TR2N0qTg-113" target="FYYByV0Zpg79TR2N0qTg-118">
          <mxGeometry width="50" height="50" relative="1" as="geometry">
            <mxPoint x="-170" y="570" as="sourcePoint" />
            <mxPoint x="-400" y="588" as="targetPoint" />
          </mxGeometry>
        </mxCell>
        <mxCell id="FYYByV0Zpg79TR2N0qTg-116" value="Yes" style="rounded=1;whiteSpace=wrap;html=1;" vertex="1" parent="1">
          <mxGeometry x="-370" y="540" width="60" height="20" as="geometry" />
        </mxCell>
        <mxCell id="FYYByV0Zpg79TR2N0qTg-119" style="edgeStyle=orthogonalEdgeStyle;rounded=0;orthogonalLoop=1;jettySize=auto;html=1;exitX=0.25;exitY=1;exitDx=0;exitDy=0;strokeColor=#FF3333;" edge="1" parent="1" source="FYYByV0Zpg79TR2N0qTg-117">
          <mxGeometry relative="1" as="geometry">
            <mxPoint x="-190" y="650" as="targetPoint" />
          </mxGeometry>
        </mxCell>
        <mxCell id="FYYByV0Zpg79TR2N0qTg-117" value="No" style="rounded=1;whiteSpace=wrap;html=1;" vertex="1" parent="1">
          <mxGeometry x="-210" y="640" width="40" height="18" as="geometry" />
        </mxCell>
        <mxCell id="FYYByV0Zpg79TR2N0qTg-118" value="Asist call&amp;nbsp;&lt;br&gt;landing page" style="whiteSpace=wrap;html=1;aspect=fixed;" vertex="1" parent="1">
          <mxGeometry x="-500" y="540" width="80" height="80" as="geometry" />
        </mxCell>
        <mxCell id="FYYByV0Zpg79TR2N0qTg-120" value="" style="endArrow=classic;html=1;rounded=0;strokeColor=#FF3333;exitX=0.5;exitY=1;exitDx=0;exitDy=0;" edge="1" parent="1" source="FYYByV0Zpg79TR2N0qTg-113">
          <mxGeometry width="50" height="50" relative="1" as="geometry">
            <mxPoint x="-170" y="560" as="sourcePoint" />
            <mxPoint x="-240" y="710" as="targetPoint" />
          </mxGeometry>
        </mxCell>
        <mxCell id="FYYByV0Zpg79TR2N0qTg-121" value="TBM&lt;br&gt;would take time to exchange data with backend server, show Loading data and waiting screen" style="rounded=1;whiteSpace=wrap;html=1;" vertex="1" parent="1">
          <mxGeometry x="-315" y="680" width="150" height="90" as="geometry" />
        </mxCell>
        <mxCell id="FYYByV0Zpg79TR2N0qTg-123" value="User place the assist call one at a time" style="text;html=1;strokeColor=none;fillColor=none;align=center;verticalAlign=middle;whiteSpace=wrap;rounded=0;" vertex="1" parent="1">
          <mxGeometry x="-170" y="520" width="60" height="30" as="geometry" />
        </mxCell>
        <mxCell id="FYYByV0Zpg79TR2N0qTg-128" value="" style="triangle;whiteSpace=wrap;html=1;direction=north;" vertex="1" parent="1">
          <mxGeometry x="-265" y="846" width="50" height="30" as="geometry" />
        </mxCell>
        <mxCell id="FYYByV0Zpg79TR2N0qTg-129" value="" style="triangle;whiteSpace=wrap;html=1;direction=south;" vertex="1" parent="1">
          <mxGeometry x="-265" y="826" width="50" height="20" as="geometry" />
        </mxCell>
        <mxCell id="FYYByV0Zpg79TR2N0qTg-134" value="" style="endArrow=none;html=1;rounded=0;strokeColor=#FF3333;entryX=0.5;entryY=1;entryDx=0;entryDy=0;exitX=0;exitY=0.5;exitDx=0;exitDy=0;" edge="1" parent="1" source="FYYByV0Zpg79TR2N0qTg-129" target="FYYByV0Zpg79TR2N0qTg-121">
          <mxGeometry width="50" height="50" relative="1" as="geometry">
            <mxPoint x="-50" y="890" as="sourcePoint" />
            <mxPoint y="840" as="targetPoint" />
          </mxGeometry>
        </mxCell>
        <mxCell id="FYYByV0Zpg79TR2N0qTg-135" value="2 seconds" style="text;html=1;strokeColor=none;fillColor=none;align=center;verticalAlign=middle;whiteSpace=wrap;rounded=0;" vertex="1" parent="1">
          <mxGeometry x="-210" y="830" width="60" height="30" as="geometry" />
        </mxCell>
        <mxCell id="FYYByV0Zpg79TR2N0qTg-145" value="Two call center page" style="whiteSpace=wrap;html=1;aspect=fixed;" vertex="1" parent="1">
          <mxGeometry x="-600" y="668" width="72" height="72" as="geometry" />
        </mxCell>
        <mxCell id="FYYByV0Zpg79TR2N0qTg-147" value="Three call center" style="whiteSpace=wrap;html=1;aspect=fixed;" vertex="1" parent="1">
          <mxGeometry x="-500" y="668" width="72" height="72" as="geometry" />
        </mxCell>
        <mxCell id="FYYByV0Zpg79TR2N0qTg-148" value="Four call center" style="whiteSpace=wrap;html=1;aspect=fixed;" vertex="1" parent="1">
          <mxGeometry x="-410" y="668" width="70" height="70" as="geometry" />
        </mxCell>
        <mxCell id="FYYByV0Zpg79TR2N0qTg-149" value="" style="endArrow=none;html=1;rounded=0;strokeColor=#FF3333;entryX=0.5;entryY=1;entryDx=0;entryDy=0;" edge="1" parent="1" target="FYYByV0Zpg79TR2N0qTg-118">
          <mxGeometry width="50" height="50" relative="1" as="geometry">
            <mxPoint x="-460" y="650" as="sourcePoint" />
            <mxPoint x="-470" y="760" as="targetPoint" />
          </mxGeometry>
        </mxCell>
        <mxCell id="FYYByV0Zpg79TR2N0qTg-150" value="" style="shape=link;html=1;rounded=0;strokeColor=#FF3333;" edge="1" parent="1">
          <mxGeometry width="100" relative="1" as="geometry">
            <mxPoint x="-375" y="648.55" as="sourcePoint" />
            <mxPoint x="-545" y="648.55" as="targetPoint" />
          </mxGeometry>
        </mxCell>
        <mxCell id="FYYByV0Zpg79TR2N0qTg-151" value="" style="endArrow=classic;html=1;rounded=0;strokeColor=#FF3333;" edge="1" parent="1">
          <mxGeometry width="50" height="50" relative="1" as="geometry">
            <mxPoint x="-460" y="650" as="sourcePoint" />
            <mxPoint x="-460" y="670" as="targetPoint" />
          </mxGeometry>
        </mxCell>
        <mxCell id="FYYByV0Zpg79TR2N0qTg-152" value="" style="endArrow=classic;html=1;rounded=0;strokeColor=#FF3333;entryX=1;entryY=0;entryDx=0;entryDy=0;" edge="1" parent="1" target="FYYByV0Zpg79TR2N0qTg-145">
          <mxGeometry width="50" height="50" relative="1" as="geometry">
            <mxPoint x="-530" y="650" as="sourcePoint" />
            <mxPoint x="-240" y="670" as="targetPoint" />
          </mxGeometry>
        </mxCell>
        <mxCell id="FYYByV0Zpg79TR2N0qTg-154" value="" style="endArrow=classic;html=1;rounded=0;strokeColor=#FF3333;entryX=0.25;entryY=0;entryDx=0;entryDy=0;" edge="1" parent="1" target="FYYByV0Zpg79TR2N0qTg-148">
          <mxGeometry width="50" height="50" relative="1" as="geometry">
            <mxPoint x="-390" y="650" as="sourcePoint" />
            <mxPoint x="-240" y="670" as="targetPoint" />
          </mxGeometry>
        </mxCell>
        <mxCell id="FYYByV0Zpg79TR2N0qTg-155" value="Option 3" style="text;html=1;strokeColor=none;fillColor=none;align=center;verticalAlign=middle;whiteSpace=wrap;rounded=0;" vertex="1" parent="1">
          <mxGeometry x="-400" y="740" width="60" height="30" as="geometry" />
        </mxCell>
        <mxCell id="FYYByV0Zpg79TR2N0qTg-156" value="Option1" style="text;html=1;strokeColor=none;fillColor=none;align=center;verticalAlign=middle;whiteSpace=wrap;rounded=0;" vertex="1" parent="1">
          <mxGeometry x="-594" y="750" width="60" height="30" as="geometry" />
        </mxCell>
        <mxCell id="FYYByV0Zpg79TR2N0qTg-157" value="Option2&amp;nbsp;" style="text;html=1;strokeColor=none;fillColor=none;align=center;verticalAlign=middle;whiteSpace=wrap;rounded=0;" vertex="1" parent="1">
          <mxGeometry x="-490" y="740" width="60" height="30" as="geometry" />
        </mxCell>
        <mxCell id="FYYByV0Zpg79TR2N0qTg-159" value="" style="endArrow=classic;html=1;rounded=0;strokeColor=#FF3333;" edge="1" parent="1">
          <mxGeometry width="50" height="50" relative="1" as="geometry">
            <mxPoint x="-240" y="880" as="sourcePoint" />
            <mxPoint x="-240" y="930" as="targetPoint" />
          </mxGeometry>
        </mxCell>
        <mxCell id="FYYByV0Zpg79TR2N0qTg-160" value="" style="endArrow=none;html=1;rounded=0;strokeColor=#FF3333;" edge="1" parent="1">
          <mxGeometry width="50" height="50" relative="1" as="geometry">
            <mxPoint x="-270" y="930" as="sourcePoint" />
            <mxPoint x="-200" y="930" as="targetPoint" />
          </mxGeometry>
        </mxCell>
        <mxCell id="FYYByV0Zpg79TR2N0qTg-161" value="" style="endArrow=classic;html=1;rounded=0;strokeColor=#FF3333;" edge="1" parent="1">
          <mxGeometry width="50" height="50" relative="1" as="geometry">
            <mxPoint x="-270" y="930" as="sourcePoint" />
            <mxPoint x="-270" y="980" as="targetPoint" />
          </mxGeometry>
        </mxCell>
        <mxCell id="FYYByV0Zpg79TR2N0qTg-162" value="" style="endArrow=classic;html=1;rounded=0;strokeColor=#FF3333;" edge="1" parent="1">
          <mxGeometry width="50" height="50" relative="1" as="geometry">
            <mxPoint x="-200" y="930" as="sourcePoint" />
            <mxPoint x="-200" y="980" as="targetPoint" />
          </mxGeometry>
        </mxCell>
        <mxCell id="FYYByV0Zpg79TR2N0qTg-163" value="Subscription assigned then it will dial" style="rounded=0;whiteSpace=wrap;html=1;" vertex="1" parent="1">
          <mxGeometry x="-320" y="980" width="90" height="50" as="geometry" />
        </mxCell>
        <mxCell id="FYYByV0Zpg79TR2N0qTg-164" value="Subscription not assigned then it would transfer hfp" style="rounded=0;whiteSpace=wrap;html=1;" vertex="1" parent="1">
          <mxGeometry x="-215" y="980" width="95" height="90" as="geometry" />
        </mxCell>
        <mxCell id="FYYByV0Zpg79TR2N0qTg-193" value="Call failed" style="whiteSpace=wrap;html=1;aspect=fixed;" vertex="1" parent="1">
          <mxGeometry x="134.5" y="738" width="100" height="100" as="geometry" />
        </mxCell>
        <mxCell id="FYYByV0Zpg79TR2N0qTg-194" value="Call failed during sos call" style="whiteSpace=wrap;html=1;aspect=fixed;" vertex="1" parent="1">
          <mxGeometry x="50" y="930" width="72" height="72" as="geometry" />
        </mxCell>
        <mxCell id="FYYByV0Zpg79TR2N0qTg-195" value="Call failed during updating" style="whiteSpace=wrap;html=1;aspect=fixed;" vertex="1" parent="1">
          <mxGeometry x="157.25" y="929" width="72" height="72" as="geometry" />
        </mxCell>
        <mxCell id="FYYByV0Zpg79TR2N0qTg-196" value="Call failed during help call" style="whiteSpace=wrap;html=1;aspect=fixed;" vertex="1" parent="1">
          <mxGeometry x="257.75" y="932" width="70" height="70" as="geometry" />
        </mxCell>
        <mxCell id="FYYByV0Zpg79TR2N0qTg-197" value="" style="shape=link;html=1;rounded=0;strokeColor=#FF3333;" edge="1" parent="1">
          <mxGeometry width="100" relative="1" as="geometry">
            <mxPoint x="283.25" y="890" as="sourcePoint" />
            <mxPoint x="88.25" y="890" as="targetPoint" />
          </mxGeometry>
        </mxCell>
        <mxCell id="FYYByV0Zpg79TR2N0qTg-198" value="" style="endArrow=classic;html=1;rounded=0;strokeColor=#FF3333;entryX=0.5;entryY=0;entryDx=0;entryDy=0;" edge="1" parent="1" target="FYYByV0Zpg79TR2N0qTg-195">
          <mxGeometry width="50" height="50" relative="1" as="geometry">
            <mxPoint x="193.25" y="900" as="sourcePoint" />
            <mxPoint x="303.25" y="932" as="targetPoint" />
          </mxGeometry>
        </mxCell>
        <mxCell id="FYYByV0Zpg79TR2N0qTg-199" value="" style="endArrow=classic;html=1;rounded=0;strokeColor=#FF3333;entryX=0.878;entryY=0;entryDx=0;entryDy=0;entryPerimeter=0;" edge="1" parent="1" target="FYYByV0Zpg79TR2N0qTg-194">
          <mxGeometry width="50" height="50" relative="1" as="geometry">
            <mxPoint x="113.25" y="890" as="sourcePoint" />
            <mxPoint x="523.25" y="932" as="targetPoint" />
          </mxGeometry>
        </mxCell>
        <mxCell id="FYYByV0Zpg79TR2N0qTg-200" value="" style="endArrow=classic;html=1;rounded=0;strokeColor=#FF3333;" edge="1" parent="1">
          <mxGeometry width="50" height="50" relative="1" as="geometry">
            <mxPoint x="263.25" y="890" as="sourcePoint" />
            <mxPoint x="263.25" y="930" as="targetPoint" />
          </mxGeometry>
        </mxCell>
        <mxCell id="FYYByV0Zpg79TR2N0qTg-202" value="" style="endArrow=none;html=1;rounded=0;strokeColor=#FF3333;entryX=0.5;entryY=1;entryDx=0;entryDy=0;" edge="1" parent="1" target="FYYByV0Zpg79TR2N0qTg-193">
          <mxGeometry width="50" height="50" relative="1" as="geometry">
            <mxPoint x="185" y="890" as="sourcePoint" />
            <mxPoint x="100" y="720" as="targetPoint" />
          </mxGeometry>
        </mxCell>
        <mxCell id="FYYByV0Zpg79TR2N0qTg-228" value="Successfully failed" style="" vertex="1" parent="1">
          <mxGeometry x="460" y="645" width="110" height="50" as="geometry" />
        </mxCell>
        <mxCell id="FYYByV0Zpg79TR2N0qTg-240" value="" style="endArrow=classic;html=1;rounded=0;strokeColor=#FF3333;" edge="1" parent="1">
          <mxGeometry width="50" height="50" relative="1" as="geometry">
            <mxPoint x="180" y="670" as="sourcePoint" />
            <mxPoint x="460" y="670" as="targetPoint" />
          </mxGeometry>
        </mxCell>
        <mxCell id="FYYByV0Zpg79TR2N0qTg-248" value="Assist call ended by &#xa;the opeartor" style="" vertex="1" parent="1">
          <mxGeometry x="645" y="830" width="110" height="50" as="geometry" />
        </mxCell>
        <mxCell id="FYYByV0Zpg79TR2N0qTg-252" value="User redials it" style="text;html=1;strokeColor=none;fillColor=none;align=center;verticalAlign=middle;whiteSpace=wrap;rounded=0;" vertex="1" parent="1">
          <mxGeometry x="229.25" y="628" width="60" height="30" as="geometry" />
        </mxCell>
        <mxCell id="FYYByV0Zpg79TR2N0qTg-256" value="User dont redial it" style="text;html=1;strokeColor=none;fillColor=none;align=center;verticalAlign=middle;whiteSpace=wrap;rounded=0;" vertex="1" parent="1">
          <mxGeometry x="100" y="690" width="60" height="30" as="geometry" />
        </mxCell>
        <mxCell id="FYYByV0Zpg79TR2N0qTg-257" value="" style="endArrow=classic;html=1;rounded=0;strokeColor=#FF3333;exitX=0.546;exitY=1.036;exitDx=0;exitDy=0;exitPerimeter=0;" edge="1" parent="1" source="FYYByV0Zpg79TR2N0qTg-228">
          <mxGeometry width="50" height="50" relative="1" as="geometry">
            <mxPoint x="280" y="760" as="sourcePoint" />
            <mxPoint x="520" y="760" as="targetPoint" />
          </mxGeometry>
        </mxCell>
        <mxCell id="FYYByV0Zpg79TR2N0qTg-258" value="Call cannot be completed&lt;br&gt;call failed" style="rounded=0;whiteSpace=wrap;html=1;" vertex="1" parent="1">
          <mxGeometry x="455" y="758" width="120" height="60" as="geometry" />
        </mxCell>
        <mxCell id="FYYByV0Zpg79TR2N0qTg-264" value="" style="whiteSpace=wrap;strokeColor=#FF0000;fillColor=#FF0000" vertex="1" parent="1">
          <mxGeometry x="520" y="820" width="5" height="45" as="geometry" />
        </mxCell>
        <mxCell id="FYYByV0Zpg79TR2N0qTg-265" value="" style="edgeStyle=none;strokeColor=#FF0000;endArrow=open;endFill=1;rounded=0" edge="1" parent="1">
          <mxGeometry width="100" height="100" relative="1" as="geometry">
            <mxPoint x="525" y="854.5" as="sourcePoint" />
            <mxPoint x="700" y="855" as="targetPoint" />
          </mxGeometry>
        </mxCell>
        <mxCell id="FYYByV0Zpg79TR2N0qTg-266" value="" style="ellipse;shape=endState;fillColor=#000000;strokeColor=#ff0000" vertex="1" parent="1">
          <mxGeometry x="685" y="925" width="30" height="30" as="geometry" />
        </mxCell>
        <mxCell id="FYYByV0Zpg79TR2N0qTg-267" value="" style="endArrow=open;strokeColor=#FF0000;endFill=1;rounded=0" edge="1" parent="1" target="FYYByV0Zpg79TR2N0qTg-266">
          <mxGeometry relative="1" as="geometry">
            <mxPoint x="700" y="855" as="sourcePoint" />
          </mxGeometry>
        </mxCell>
      </root>
    </mxGraphModel>
  </diagram>
</mxfile>
